HIERARCHY
ROOT Hips
{
	OFFSET 0.00 0.00 0.00
	CHANNELS 6 Xposition Yposition Zposition Xrotation Yrotation Zrotation
	JOINT RightUpLeg
	{
		OFFSET -4.47808 0.00000 0.00000
		CHANNELS 3 Xrotation Yrotation Zrotation
		JOINT RightLeg
		{
			OFFSET 0.00000 -16.40577 0.00000
			CHANNELS 3 Xrotation Yrotation Zrotation
			JOINT RightFoot
			{
				OFFSET 0.00000 -14.64414 0.00000
				CHANNELS 3 Xrotation Yrotation Zrotation
				JOINT RightToeBase
				{
					OFFSET 0.00000 -1.50274 5.60831
					CHANNELS 3 Xrotation Yrotation Zrotation
					End Site
					{
						OFFSET 0.00000 0.00000 2.95275
					}
				}
			}
		}
	}
	JOINT LeftUpLeg
	{
		OFFSET 4.47808 0.00000 0.00000
		CHANNELS 3 Xrotation Yrotation Zrotation
		JOINT LeftLeg
		{
			OFFSET 0.00000 -16.40577 0.00000
			CHANNELS 3 Xrotation Yrotation Zrotation
			JOINT LeftFoot
			{
				OFFSET 0.00000 -14.64414 0.00000
				CHANNELS 3 Xrotation Yrotation Zrotation
				JOINT LeftToeBase
				{
					OFFSET 0.00000 -1.50274 5.60831
					CHANNELS 3 Xrotation Yrotation Zrotation
					End Site
					{
						OFFSET 0.00000 0.00000 2.95275
					}
				}
			}
		}
	}
	JOINT Spine
	{
		OFFSET 0.00000 6.06821 0.00000
		CHANNELS 3 Xrotation Yrotation Zrotation
		JOINT RightShoulder
		{
			OFFSET 0.00000 10.01392 0.00000
			CHANNELS 3 Xrotation Yrotation Zrotation
			JOINT RightArm
			{
				OFFSET -7.19022 0.00000 0.00000
				CHANNELS 3 Xrotation Yrotation Zrotation
				JOINT RightForeArm
				{
					OFFSET -10.17747 0.00000 0.00000
					CHANNELS 3 Yrotation Zrotation Xrotation
					JOINT RightHand
					{
						OFFSET -8.39211 0.00000 0.00000
						CHANNELS 3 Xrotation Yrotation Zrotation
						End Site
						{
							OFFSET -3.93700 0.00000 0.00000
						}
						JOINT RightHandThumb1
						{
							OFFSET 0.00000 0.00000 0.00000
							CHANNELS 3 Xrotation Zrotation Yrotation
							End Site
							{
								OFFSET 0.00000 0.00000 3.93700
							}
						}
					}
				}
			}
		}
		JOINT LeftShoulder
		{
			OFFSET 0.00000 10.01392 0.00000
			CHANNELS 3 Xrotation Yrotation Zrotation
			JOINT LeftArm
			{
				OFFSET 7.19022 0.00000 0.00000
				CHANNELS 3 Xrotation Yrotation Zrotation
				JOINT LeftForeArm
				{
					OFFSET 10.17747 0.00000 0.00000
					CHANNELS 3 Yrotation Zrotation Xrotation
					JOINT LeftHand
					{
						OFFSET 8.39211 0.00000 0.00000
						CHANNELS 3 Xrotation Yrotation Zrotation
						End Site
						{
							OFFSET 3.93700 0.00000 0.00000
						}
						JOINT LeftHandThumb1
						{
							OFFSET 0.00000 0.00000 0.00000
							CHANNELS 3 Xrotation Zrotation Yrotation
							End Site
							{
								OFFSET 0.00000 0.00000 3.93700
							}
						}
					}
				}
			}
		}
		JOINT Head
		{
			OFFSET 0.00000 15.77748 0.00000
			CHANNELS 3 Xrotation Yrotation Zrotation
			End Site
			{
				OFFSET 0.00000 4.52755 0.00000
			}
		}
	}
}
MOTION
Frames: 17
Frame Time: 0.008333
 6.1638 31.9275 -3.6861 8.6692 7.3226 7.4529 -23.3774 1.4991 3.5165 38.4056 -0.0000 -0.0000 -28.4464 -8.4106 -11.8213 1.9858 -0.0000 0.0000 -4.5520 -9.5585 -22.5516 -2.3011 0.0000 0.0000 -4.6700 0.6906 -1.8203 4.1451 -0.0000 -0.0000 -3.0026 -7.2154 35.5533 15.5159 -11.7849 0.0602 -19.0996 9.3431 64.8176 15.4662 0.0000 7.7243 0.3568 14.6872 -1.4070 32.8623 0.0000 -24.3270 -28.5588 -1.8602 58.3673 -70.1831 -35.1462 -22.7144 -20.2415 -0.0000 3.0972 -0.0647 0.7324 5.0506 33.1476 -0.0000 26.2537 -10.8561 -3.9293 46.8463
 6.1589 31.9303 -3.6890 8.6429 7.3562 7.4428 -23.3465 1.4935 3.5311 38.3814 0.0000 0.0000 -28.4387 -8.4383 -11.7989 1.8829 0.0000 -0.0000 -4.5403 -9.5814 -22.5356 -2.2924 -0.0000 -0.0000 -4.6570 0.6663 -1.7756 4.1241 -0.0000 0.0000 -2.9876 -7.2149 35.5477 15.4955 -11.8239 0.0732 -19.1061 9.4083 64.7894 15.4069 0.0000 7.6079 0.3329 14.7177 -1.3101 32.8623 0.0000 -24.3270 -28.6168 -1.9053 58.3693 -70.1063 -35.1192 -22.7152 -20.2214 -0.0000 3.1426 -0.0732 0.8271 5.0606 33.1476 -0.0000 26.2537 -10.7688 -4.0962 46.8493
 6.1537 31.9326 -3.6920 8.6157 7.3906 7.4306 -23.3178 1.4853 3.5480 38.3645 -0.0000 0.0000 -28.4224 -8.4452 -11.8010 1.7967 -0.0000 -0.0000 -4.5072 -9.5153 -22.5156 -2.2500 -0.0000 -0.0000 -4.6701 0.5747 -1.7913 4.1950 -0.0000 -0.0000 -2.9942 -7.2410 35.5510 15.4473 -11.7904 0.0261 -19.0893 9.2578 64.8074 15.3895 0.0000 7.7115 0.3466 14.7011 -1.3656 32.8623 0.0000 -24.3270 -28.5914 -1.9209 58.3380 -70.0604 -35.1083 -22.6817 -20.2100 -0.0000 3.2604 -0.0820 0.9161 5.1154 33.1476 -0.0000 26.2537 -10.8467 -4.0547 46.8984
 6.1499 31.9343 -3.6960 8.5911 7.4156 7.4267 -23.2992 1.4803 3.5576 38.3577 -0.0000 0.0000 -28.4014 -8.4578 -11.8196 1.7216 0.0000 0.0000 -4.4882 -9.4779 -22.5070 -2.2175 -0.0000 -0.0000 -4.6740 0.5223 -1.7840 4.2033 0.0000 -0.0000 -2.9821 -7.2338 35.5339 15.4602 -11.8243 0.0394 -19.1198 9.3471 64.7933 15.3257 0.0000 7.6610 0.3558 14.7233 -1.3997 32.8623 0.0000 -24.3270 -28.6120 -1.9423 58.3418 -69.9869 -35.0967 -22.6408 -20.1879 -0.0000 3.3192 -0.0832 0.9155 5.1922 33.1476 -0.0000 26.2537 -10.7930 -4.1883 46.9084
 6.1452 31.9355 -3.6979 8.5649 7.4433 7.4200 -23.2647 1.4516 3.5655 38.3303 0.0000 0.0000 -28.3905 -8.4518 -11.8423 1.6545 -0.0000 0.0000 -4.4587 -9.4628 -22.4909 -2.2077 0.0000 0.0000 -4.6851 0.5000 -1.8173 4.2756 -0.0000 0.0000 -2.9912 -7.2050 35.5206 15.4512 -11.8881 0.0528 -19.1559 9.3412 64.7929 15.2769 0.0000 7.7379 0.3843 14.6978 -1.5142 32.8623 0.0000 -24.3270 -28.6468 -1.9970 58.3223 -69.9251 -35.0752 -22.6203 -20.1951 -0.0000 3.3929 -0.0860 0.9434 5.2098 33.1476 -0.0000 26.2537 -10.8390 -4.2984 46.9102
 6.1439 31.9357 -3.7029 8.5355 7.4691 7.4214 -23.2487 1.4309 3.5612 38.3421 0.0000 -0.0000 -28.3881 -8.4645 -11.8505 1.6132 -0.0000 0.0000 -4.4412 -9.4630 -22.4897 -2.1965 -0.0000 -0.0000 -4.6810 0.4834 -1.8346 4.2475 -0.0000 -0.0000 -2.9845 -7.2227 35.5063 15.4703 -11.8655 0.0190 -19.1980 9.3476 64.8037 15.2091 0.0000 7.7326 0.3953 14.6593 -1.5615 32.8623 0.0000 -24.3270 -28.4746 -1.7676 58.2811 -70.1026 -35.1437 -22.5214 -20.1420 -0.0000 3.4046 -0.0951 1.0188 5.3339 33.1476 -0.0000 26.2537 -10.8565 -4.2918 46.9029
 6.1399 31.9372 -3.7054 8.5070 7.4986 7.4174 -23.2148 1.3830 3.5590 38.3126 0.0000 -0.0000 -28.3751 -8.4475 -11.8618 1.6183 0.0000 0.0000 -4.4234 -9.4896 -22.4746 -2.1957 0.0000 -0.0000 -4.6790 0.4746 -1.8691 4.3235 0.0000 -0.0000 -2.9869 -7.2478 35.4939 15.5125 -11.8325 0.0112 -19.2372 9.3029 64.7949 15.1824 0.0000 7.7488 0.3792 14.6867 -1.4952 32.8623 0.0000 -24.3270 -28.5510 -1.9104 58.3109 -69.9283 -35.0551 -22.5522 -20.1855 -0.0000 3.5168 -0.1035 1.0863 5.4439 33.1476 -0.0000 26.2537 -10.9539 -4.2418 46.9276
 6.1402 31.9389 -3.7118 8.4958 7.5114 7.4222 -23.2064 1.3683 3.5474 38.2899 -0.0000 0.0000 -28.3610 -8.4623 -11.8646 1.6589 -0.0000 0.0000 -4.4180 -9.4641 -22.4784 -2.1876 -0.0000 -0.0000 -4.6557 0.4500 -1.8879 4.2793 -0.0000 -0.0000 -3.0005 -7.2258 35.4786 15.5111 -11.8330 -0.0132 -19.2162 9.3216 64.7853 15.1903 0.0000 7.6601 0.3693 14.6480 -1.4600 32.8623 0.0000 -24.3270 -28.5651 -1.9525 58.3124 -69.8295 -35.0288 -22.5084 -20.1644 -0.0000 3.5557 -0.1050 1.0770 5.5700 33.1476 -0.0000 26.2537 -10.9838 -4.2759 46.8966
 6.1390 31.9392 -3.7130 8.4839 7.5355 7.4215 -23.1860 1.3271 3.5356 38.2758 0.0000 -0.0000 -28.3610 -8.4523 -11.8536 1.6451 -0.0000 -0.0000 -4.4153 -9.5058 -22.4727 -2.2008 0.0000 -0.0000 -4.6481 0.4763 -1.9239 4.3103 -0.0000 -0.0000 -3.0307 -7.2253 35.4668 15.5053 -11.8561 -0.0312 -19.1870 9.3411 64.7851 15.1966 0.0000 7.6001 0.3631 14.6537 -1.4352 32.8623 0.0000 -24.3270 -28.5454 -1.9332 58.3092 -69.8119 -35.0036 -22.4923 -20.1511 -0.0000 3.6145 -0.1018 1.0207 5.6976 33.1476 -0.0000 26.2537 -10.9893 -4.3148 46.8482
 6.1379 31.9401 -3.7190 8.4706 7.5631 7.4208 -23.1772 1.2841 3.5217 38.2563 0.0000 -0.0000 -28.3450 -8.4391 -11.8541 1.6749 -0.0000 0.0000 -4.4257 -9.5414 -22.4699 -2.1973 0.0000 -0.0000 -4.6350 0.4798 -1.9223 4.3423 -0.0000 -0.0000 -3.0439 -7.2200 35.4562 15.5066 -11.8674 -0.0430 -19.2326 9.2710 64.8037 15.1814 0.0000 7.6272 0.3693 14.6682 -1.4582 32.8623 0.0000 -24.3270 -28.5535 -1.9360 58.3041 -69.7831 -34.9826 -22.4871 -20.1407 -0.0000 3.6562 -0.1042 1.0283 5.7853 33.1476 -0.0000 26.2537 -11.0068 -4.3513 46.8006
 6.1383 31.9406 -3.7208 8.4559 7.5776 7.4245 -23.1591 1.2618 3.5075 38.2443 0.0000 0.0000 -28.3359 -8.4255 -11.8565 1.6780 -0.0000 -0.0000 -4.3938 -9.4288 -22.4699 -2.1470 -0.0000 -0.0000 -4.6529 0.3585 -1.9674 4.3297 0.0000 0.0000 -3.0707 -7.2112 35.4499 15.5122 -11.8848 -0.0697 -19.2265 9.2691 64.8158 15.1761 0.0000 7.5508 0.3660 14.7618 -1.4362 32.8623 0.0000 -24.3270 -28.4343 -1.7619 58.2514 -69.8792 -35.0516 -22.3975 -20.1006 -0.0000 3.6528 -0.1095 1.0666 5.8636 33.1476 -0.0000 26.2537 -11.0111 -4.3675 46.7262
 6.1378 31.9410 -3.7244 8.4497 7.5856 7.4247 -23.1532 1.2543 3.5024 38.2314 0.0000 -0.0000 -28.3256 -8.4222 -11.8640 1.6656 -0.0000 -0.0000 -4.3961 -9.4240 -22.4693 -2.1383 -0.0000 0.0000 -4.6470 0.3506 -1.9596 4.3030 -0.0000 -0.0000 -3.0869 -7.2104 35.4410 15.4876 -11.8776 -0.0989 -19.2265 9.2034 64.8421 15.1766 0.0000 7.5800 0.3583 14.7689 -1.4054 32.8623 0.0000 -24.3270 -28.4469 -1.7756 58.2546 -69.7928 -35.0353 -22.3719 -20.1176 -0.0000 3.7061 -0.1181 1.1274 5.9822 33.1476 -0.0000 26.2537 -11.0172 -4.3679 46.6722
 6.1377 31.9417 -3.7294 8.4474 7.5927 7.4188 -23.1572 1.2434 3.5005 38.2203 -0.0000 -0.0000 -28.3135 -8.4204 -11.8385 1.6766 0.0000 -0.0000 -4.4090 -9.4357 -22.4657 -2.1350 0.0000 0.0000 -4.6417 0.3594 -1.9666 4.2801 0.0000 0.0000 -3.0994 -7.2055 35.4452 15.4734 -11.8792 -0.1282 -19.2274 9.1797 64.8647 15.1864 0.0000 7.5579 0.3739 14.7438 -1.4687 32.8623 0.0000 -24.3270 -28.5188 -1.8753 58.2591 -69.6302 -34.9864 -22.3674 -20.1694 -0.0000 3.8390 -0.1324 1.2312 6.1400 33.1476 -0.0000 26.2537 -11.0438 -4.3494 46.6060
 6.1376 31.9417 -3.7338 8.4443 7.5828 7.4153 -23.1619 1.2504 3.5055 38.2234 0.0000 0.0000 -28.3052 -8.4084 -11.8282 1.6446 0.0000 0.0000 -4.4664 -9.6830 -22.4676 -2.2286 -0.0000 -0.0000 -4.5911 0.6260 -1.9407 4.2082 -0.0000 -0.0000 -3.1086 -7.1938 35.4447 15.4483 -11.8769 -0.1537 -19.2356 9.1388 64.8920 15.1817 0.0000 7.5539 0.3795 14.7400 -1.4912 32.8623 0.0000 -24.3270 -28.5406 -1.9084 58.2475 -69.5793 -34.9655 -22.3706 -20.1897 -0.0000 3.9466 -0.1427 1.2974 6.2763 33.1476 -0.0000 26.2537 -11.0597 -4.3229 46.5468
 6.1383 31.9418 -3.7393 8.4411 7.5627 7.4176 -23.1731 1.2832 3.5121 38.2311 0.0000 0.0000 -28.3008 -8.4230 -11.7963 1.6905 0.0000 -0.0000 -4.4844 -9.7328 -22.4730 -2.2522 0.0000 -0.0000 -4.5711 0.7067 -1.9462 4.1689 -0.0000 -0.0000 -3.1063 -7.1691 35.4406 15.4244 -11.8740 -0.1699 -19.2342 9.1221 64.9100 15.2024 0.0000 7.5167 0.3782 14.7125 -1.4890 32.8623 0.0000 -24.3270 -28.5138 -1.8418 58.2198 -69.6309 -34.9803 -22.3545 -20.1903 -0.0000 4.0178 -0.1504 1.3534 6.3415 33.1476 -0.0000 26.2537 -11.0846 -4.3038 46.4947
 6.1384 31.9411 -3.7458 8.4425 7.5433 7.4139 -23.1945 1.3208 3.5250 38.2522 0.0000 0.0000 -28.3064 -8.4343 -11.7971 1.7111 0.0000 0.0000 -4.4511 -9.5219 -22.4657 -2.1773 0.0000 -0.0000 -4.6173 0.5120 -1.9478 4.1375 -0.0000 -0.0000 -3.0948 -7.1444 35.4362 15.3845 -11.8772 -0.1823 -19.2337 9.1250 64.9387 15.2157 0.0000 7.4896 0.3937 14.6642 -1.5549 32.8623 0.0000 -24.3270 -28.4997 -1.7728 58.2056 -69.6655 -35.0035 -22.3273 -20.1943 -0.0000 4.1150 -0.1578 1.3941 6.4592 33.1476 -0.0000 26.2537 -11.0156 -4.3703 46.4386
 6.1398 31.9400 -3.7506 8.4428 7.5135 7.4218 -23.2107 1.3596 3.5290 38.2673 0.0000 -0.0000 -28.3116 -8.4388 -11.7931 1.7226 -0.0000 -0.0000 -4.4536 -9.5074 -22.4749 -2.1885 -0.0000 -0.0000 -4.6114 0.5319 -1.9405 4.0777 -0.0000 0.0000 -3.0764 -7.1388 35.4207 15.3534 -11.8569 -0.1880 -19.3250 8.9651 64.9836 15.1932 0.0000 7.6129 0.3576 14.7407 -1.4050 32.8623 0.0000 -24.3270 -28.5174 -1.7763 58.2165 -69.6361 -34.9863 -22.3266 -20.2101 -0.0000 4.1974 -0.1645 1.4327 6.5512 33.1476 -0.0000 26.2537 -11.0121 -4.3499 46.4034
